<mxfile host="drawio-plugin" modified="2023-10-16T07:46:41.364Z" agent="5.0 (Macintosh; Intel Mac OS X 10_15_7) AppleWebKit/537.36 (KHTML, like Gecko) Chrome/111.0.0.0 Safari/537.36" etag="0w1P4uYQB4WTB3ivT6PX" version="20.5.3" type="embed"><diagram name="Page-1" id="YjoCUqOJmJAWPVtWp_rb"><mxGraphModel dx="828" dy="1787" grid="1" gridSize="10" guides="1" tooltips="1" connect="1" arrows="1" fold="1" page="1" pageScale="1" pageWidth="1000" pageHeight="1000" math="0" shadow="0"><root><mxCell id="0"/><mxCell id="1" parent="0"/><mxCell id="5qRxrPsNrbithYH7x9MK-46" style="edgeStyle=orthogonalEdgeStyle;rounded=0;orthogonalLoop=1;jettySize=auto;html=1;endArrow=none;endFill=0;" parent="1" source="04CNbRLkM5EJVx110FWp-2" target="04CNbRLkM5EJVx110FWp-24" edge="1"><mxGeometry relative="1" as="geometry"/></mxCell><mxCell id="5qRxrPsNrbithYH7x9MK-58" value="1,1" style="edgeLabel;html=1;align=center;verticalAlign=middle;resizable=0;points=[];" parent="5qRxrPsNrbithYH7x9MK-46" vertex="1" connectable="0"><mxGeometry x="0.0194" relative="1" as="geometry"><mxPoint as="offset"/></mxGeometry></mxCell><mxCell id="oQ8XawYt_i0SIQOXS1K6-8" style="edgeStyle=orthogonalEdgeStyle;rounded=0;orthogonalLoop=1;jettySize=auto;html=1;" parent="1" source="04CNbRLkM5EJVx110FWp-2" target="5qRxrPsNrbithYH7x9MK-102" edge="1"><mxGeometry relative="1" as="geometry"/></mxCell><mxCell id="oQ8XawYt_i0SIQOXS1K6-9" value="0,n" style="edgeLabel;html=1;align=center;verticalAlign=middle;resizable=0;points=[];" parent="oQ8XawYt_i0SIQOXS1K6-8" vertex="1" connectable="0"><mxGeometry x="0.3443" y="1" relative="1" as="geometry"><mxPoint as="offset"/></mxGeometry></mxCell><mxCell id="04CNbRLkM5EJVx110FWp-2" value="people" style="swimlane;fontStyle=0;childLayout=stackLayout;horizontal=1;startSize=26;horizontalStack=0;resizeParent=1;resizeParentMax=0;resizeLast=0;collapsible=1;marginBottom=0;align=center;fontSize=14;" parent="1" vertex="1"><mxGeometry x="390" y="170" width="160" height="236" as="geometry"/></mxCell><mxCell id="04CNbRLkM5EJVx110FWp-5" value="username" style="text;strokeColor=none;fillColor=default;spacingLeft=4;spacingRight=4;overflow=hidden;rotatable=0;points=[[0,0.5],[1,0.5]];portConstraint=eastwest;fontSize=12;whiteSpace=wrap;html=1;fontStyle=4" parent="04CNbRLkM5EJVx110FWp-2" vertex="1"><mxGeometry y="26" width="160" height="30" as="geometry"/></mxCell><mxCell id="04CNbRLkM5EJVx110FWp-3" value="lastname" style="text;strokeColor=none;fillColor=default;spacingLeft=4;spacingRight=4;overflow=hidden;rotatable=0;points=[[0,0.5],[1,0.5]];portConstraint=eastwest;fontSize=12;whiteSpace=wrap;html=1;" parent="04CNbRLkM5EJVx110FWp-2" vertex="1"><mxGeometry y="56" width="160" height="30" as="geometry"/></mxCell><mxCell id="04CNbRLkM5EJVx110FWp-4" value="firstname" style="text;strokeColor=none;fillColor=default;spacingLeft=4;spacingRight=4;overflow=hidden;rotatable=0;points=[[0,0.5],[1,0.5]];portConstraint=eastwest;fontSize=12;whiteSpace=wrap;html=1;" parent="04CNbRLkM5EJVx110FWp-2" vertex="1"><mxGeometry y="86" width="160" height="30" as="geometry"/></mxCell><mxCell id="04CNbRLkM5EJVx110FWp-6" value="email" style="text;strokeColor=none;fillColor=default;spacingLeft=4;spacingRight=4;overflow=hidden;rotatable=0;points=[[0,0.5],[1,0.5]];portConstraint=eastwest;fontSize=12;whiteSpace=wrap;html=1;" parent="04CNbRLkM5EJVx110FWp-2" vertex="1"><mxGeometry y="116" width="160" height="30" as="geometry"/></mxCell><mxCell id="04CNbRLkM5EJVx110FWp-34" value="phone_number" style="text;strokeColor=none;fillColor=default;spacingLeft=4;spacingRight=4;overflow=hidden;rotatable=0;points=[[0,0.5],[1,0.5]];portConstraint=eastwest;fontSize=12;whiteSpace=wrap;html=1;" parent="04CNbRLkM5EJVx110FWp-2" vertex="1"><mxGeometry y="146" width="160" height="30" as="geometry"/></mxCell><mxCell id="oQ8XawYt_i0SIQOXS1K6-29" value="type" style="text;strokeColor=none;fillColor=default;spacingLeft=4;spacingRight=4;overflow=hidden;rotatable=0;points=[[0,0.5],[1,0.5]];portConstraint=eastwest;fontSize=12;whiteSpace=wrap;html=1;" parent="04CNbRLkM5EJVx110FWp-2" vertex="1"><mxGeometry y="176" width="160" height="30" as="geometry"/></mxCell><mxCell id="oQ8XawYt_i0SIQOXS1K6-1" value="iban" style="text;strokeColor=none;fillColor=default;spacingLeft=4;spacingRight=4;overflow=hidden;rotatable=0;points=[[0,0.5],[1,0.5]];portConstraint=eastwest;fontSize=12;whiteSpace=wrap;html=1;" parent="04CNbRLkM5EJVx110FWp-2" vertex="1"><mxGeometry y="206" width="160" height="30" as="geometry"/></mxCell><mxCell id="04CNbRLkM5EJVx110FWp-7" value="addresses" style="swimlane;fontStyle=0;childLayout=stackLayout;horizontal=1;startSize=26;horizontalStack=0;resizeParent=1;resizeParentMax=0;resizeLast=0;collapsible=1;marginBottom=0;align=center;fontSize=14;labelBackgroundColor=none;fillStyle=solid;" parent="1" vertex="1"><mxGeometry x="390" y="-110" width="160" height="146" as="geometry"><mxRectangle x="334" y="128" width="90" height="30" as="alternateBounds"/></mxGeometry></mxCell><mxCell id="04CNbRLkM5EJVx110FWp-9" value="zip" style="text;strokeColor=none;fillColor=default;spacingLeft=4;spacingRight=4;overflow=hidden;rotatable=0;points=[[0,0.5],[1,0.5]];portConstraint=eastwest;fontSize=12;whiteSpace=wrap;html=1;" parent="04CNbRLkM5EJVx110FWp-7" vertex="1"><mxGeometry y="26" width="160" height="30" as="geometry"/></mxCell><mxCell id="04CNbRLkM5EJVx110FWp-8" value="town&lt;span style=&quot;white-space: pre;&quot;&gt;&#9;&lt;/span&gt;&lt;span style=&quot;white-space: pre;&quot;&gt;&#9;&lt;/span&gt;" style="text;strokeColor=none;fillColor=default;spacingLeft=4;spacingRight=4;overflow=hidden;rotatable=0;points=[[0,0.5],[1,0.5]];portConstraint=eastwest;fontSize=12;whiteSpace=wrap;html=1;" parent="04CNbRLkM5EJVx110FWp-7" vertex="1"><mxGeometry y="56" width="160" height="30" as="geometry"/></mxCell><mxCell id="04CNbRLkM5EJVx110FWp-11" value="street" style="text;strokeColor=none;fillColor=default;spacingLeft=4;spacingRight=4;overflow=hidden;rotatable=0;points=[[0,0.5],[1,0.5]];portConstraint=eastwest;fontSize=12;whiteSpace=wrap;html=1;" parent="04CNbRLkM5EJVx110FWp-7" vertex="1"><mxGeometry y="86" width="160" height="30" as="geometry"/></mxCell><mxCell id="04CNbRLkM5EJVx110FWp-10" value="number" style="text;strokeColor=none;fillColor=default;spacingLeft=4;spacingRight=4;overflow=hidden;rotatable=0;points=[[0,0.5],[1,0.5]];portConstraint=eastwest;fontSize=12;whiteSpace=wrap;html=1;" parent="04CNbRLkM5EJVx110FWp-7" vertex="1"><mxGeometry y="116" width="160" height="30" as="geometry"/></mxCell><mxCell id="5qRxrPsNrbithYH7x9MK-47" style="edgeStyle=orthogonalEdgeStyle;rounded=0;orthogonalLoop=1;jettySize=auto;html=1;endArrow=none;endFill=0;" parent="1" source="04CNbRLkM5EJVx110FWp-24" target="04CNbRLkM5EJVx110FWp-7" edge="1"><mxGeometry relative="1" as="geometry"/></mxCell><mxCell id="5qRxrPsNrbithYH7x9MK-60" value="0,n" style="edgeLabel;html=1;align=center;verticalAlign=middle;resizable=0;points=[];" parent="5qRxrPsNrbithYH7x9MK-47" vertex="1" connectable="0"><mxGeometry x="-0.2239" y="-1" relative="1" as="geometry"><mxPoint as="offset"/></mxGeometry></mxCell><mxCell id="04CNbRLkM5EJVx110FWp-24" value="to live" style="rounded=1;whiteSpace=wrap;html=1;" parent="1" vertex="1"><mxGeometry x="410" y="80" width="120" height="30" as="geometry"/></mxCell><mxCell id="5qRxrPsNrbithYH7x9MK-48" style="edgeStyle=orthogonalEdgeStyle;rounded=0;orthogonalLoop=1;jettySize=auto;html=1;endArrow=none;endFill=0;" parent="1" edge="1"><mxGeometry relative="1" as="geometry"><mxPoint x="710" y="416" as="sourcePoint"/></mxGeometry></mxCell><mxCell id="5qRxrPsNrbithYH7x9MK-76" value="1,1" style="edgeLabel;html=1;align=center;verticalAlign=middle;resizable=0;points=[];" parent="5qRxrPsNrbithYH7x9MK-48" vertex="1" connectable="0"><mxGeometry x="-0.3761" y="1" relative="1" as="geometry"><mxPoint as="offset"/></mxGeometry></mxCell><mxCell id="5qRxrPsNrbithYH7x9MK-56" style="edgeStyle=orthogonalEdgeStyle;rounded=0;orthogonalLoop=1;jettySize=auto;html=1;endArrow=none;endFill=0;" parent="1" source="04CNbRLkM5EJVx110FWp-37" target="5qRxrPsNrbithYH7x9MK-24" edge="1"><mxGeometry relative="1" as="geometry"><Array as="points"><mxPoint x="610" y="536"/><mxPoint x="610" y="536"/></Array></mxGeometry></mxCell><mxCell id="5qRxrPsNrbithYH7x9MK-69" value="0,n" style="edgeLabel;html=1;align=center;verticalAlign=middle;resizable=0;points=[];" parent="5qRxrPsNrbithYH7x9MK-56" vertex="1" connectable="0"><mxGeometry x="0.0602" y="2" relative="1" as="geometry"><mxPoint as="offset"/></mxGeometry></mxCell><mxCell id="5qRxrPsNrbithYH7x9MK-73" style="edgeStyle=orthogonalEdgeStyle;rounded=0;orthogonalLoop=1;jettySize=auto;html=1;endArrow=none;endFill=0;" parent="1" source="04CNbRLkM5EJVx110FWp-37" target="5qRxrPsNrbithYH7x9MK-20" edge="1"><mxGeometry relative="1" as="geometry"/></mxCell><mxCell id="5qRxrPsNrbithYH7x9MK-75" value="0,1" style="edgeLabel;html=1;align=center;verticalAlign=middle;resizable=0;points=[];" parent="5qRxrPsNrbithYH7x9MK-73" vertex="1" connectable="0"><mxGeometry x="-0.5542" relative="1" as="geometry"><mxPoint as="offset"/></mxGeometry></mxCell><mxCell id="04CNbRLkM5EJVx110FWp-37" value="classes" style="swimlane;fontStyle=0;childLayout=stackLayout;horizontal=1;startSize=26;horizontalStack=0;resizeParent=1;resizeParentMax=0;resizeLast=0;collapsible=1;marginBottom=0;align=center;fontSize=14;" parent="1" vertex="1"><mxGeometry x="390" y="516" width="160" height="86" as="geometry"><mxRectangle x="334" y="128" width="90" height="30" as="alternateBounds"/></mxGeometry></mxCell><mxCell id="oQ8XawYt_i0SIQOXS1K6-6" value="uid" style="text;strokeColor=none;fillColor=default;spacingLeft=4;spacingRight=4;overflow=hidden;rotatable=0;points=[[0,0.5],[1,0.5]];portConstraint=eastwest;fontSize=12;whiteSpace=wrap;html=1;fontStyle=4" parent="04CNbRLkM5EJVx110FWp-37" vertex="1"><mxGeometry y="26" width="160" height="30" as="geometry"/></mxCell><mxCell id="04CNbRLkM5EJVx110FWp-38" value="name" style="text;strokeColor=none;fillColor=default;spacingLeft=4;spacingRight=4;overflow=hidden;rotatable=0;points=[[0,0.5],[1,0.5]];portConstraint=eastwest;fontSize=12;whiteSpace=wrap;html=1;" parent="04CNbRLkM5EJVx110FWp-37" vertex="1"><mxGeometry y="56" width="160" height="30" as="geometry"/></mxCell><mxCell id="5qRxrPsNrbithYH7x9MK-33" style="edgeStyle=orthogonalEdgeStyle;rounded=0;orthogonalLoop=1;jettySize=auto;html=1;endArrow=none;endFill=0;" parent="1" source="04CNbRLkM5EJVx110FWp-41" target="5qRxrPsNrbithYH7x9MK-31" edge="1"><mxGeometry relative="1" as="geometry"/></mxCell><mxCell id="5qRxrPsNrbithYH7x9MK-72" value="0,n" style="edgeLabel;html=1;align=center;verticalAlign=middle;resizable=0;points=[];" parent="5qRxrPsNrbithYH7x9MK-33" vertex="1" connectable="0"><mxGeometry x="0.4237" y="-1" relative="1" as="geometry"><mxPoint as="offset"/></mxGeometry></mxCell><mxCell id="04CNbRLkM5EJVx110FWp-41" value="subjects" style="swimlane;fontStyle=0;childLayout=stackLayout;horizontal=1;startSize=26;horizontalStack=0;resizeParent=1;resizeParentMax=0;resizeLast=0;collapsible=1;marginBottom=0;align=center;fontSize=14;" parent="1" vertex="1"><mxGeometry x="810" y="925" width="160" height="56" as="geometry"><mxRectangle x="334" y="128" width="90" height="30" as="alternateBounds"/></mxGeometry></mxCell><mxCell id="04CNbRLkM5EJVx110FWp-42" value="name" style="text;strokeColor=none;fillColor=default;spacingLeft=4;spacingRight=4;overflow=hidden;rotatable=0;points=[[0,0.5],[1,0.5]];portConstraint=eastwest;fontSize=12;whiteSpace=wrap;html=1;" parent="04CNbRLkM5EJVx110FWp-41" vertex="1"><mxGeometry y="26" width="160" height="30" as="geometry"/></mxCell><mxCell id="5qRxrPsNrbithYH7x9MK-25" style="edgeStyle=orthogonalEdgeStyle;rounded=0;orthogonalLoop=1;jettySize=auto;html=1;entryX=0.5;entryY=1;entryDx=0;entryDy=0;endArrow=none;endFill=0;" parent="1" source="04CNbRLkM5EJVx110FWp-44" target="5qRxrPsNrbithYH7x9MK-24" edge="1"><mxGeometry relative="1" as="geometry"><Array as="points"><mxPoint x="640" y="810"/><mxPoint x="640" y="556"/></Array></mxGeometry></mxCell><mxCell id="5qRxrPsNrbithYH7x9MK-70" value="1,1" style="edgeLabel;html=1;align=center;verticalAlign=middle;resizable=0;points=[];" parent="5qRxrPsNrbithYH7x9MK-25" vertex="1" connectable="0"><mxGeometry x="-0.1463" y="1" relative="1" as="geometry"><mxPoint as="offset"/></mxGeometry></mxCell><mxCell id="5qRxrPsNrbithYH7x9MK-57" style="edgeStyle=orthogonalEdgeStyle;rounded=0;orthogonalLoop=1;jettySize=auto;html=1;endArrow=none;endFill=0;" parent="1" source="04CNbRLkM5EJVx110FWp-44" target="5qRxrPsNrbithYH7x9MK-31" edge="1"><mxGeometry relative="1" as="geometry"><Array as="points"><mxPoint x="640" y="900"/></Array></mxGeometry></mxCell><mxCell id="5qRxrPsNrbithYH7x9MK-71" value="1,1" style="edgeLabel;html=1;align=center;verticalAlign=middle;resizable=0;points=[];" parent="5qRxrPsNrbithYH7x9MK-57" vertex="1" connectable="0"><mxGeometry x="-0.0062" y="2" relative="1" as="geometry"><mxPoint as="offset"/></mxGeometry></mxCell><mxCell id="5qRxrPsNrbithYH7x9MK-85" style="edgeStyle=orthogonalEdgeStyle;rounded=0;orthogonalLoop=1;jettySize=auto;html=1;endArrow=none;endFill=0;" parent="1" source="04CNbRLkM5EJVx110FWp-44" target="5qRxrPsNrbithYH7x9MK-84" edge="1"><mxGeometry relative="1" as="geometry"/></mxCell><mxCell id="5qRxrPsNrbithYH7x9MK-87" value="0,n" style="edgeLabel;html=1;align=center;verticalAlign=middle;resizable=0;points=[];" parent="5qRxrPsNrbithYH7x9MK-85" vertex="1" connectable="0"><mxGeometry x="0.067" y="1" relative="1" as="geometry"><mxPoint x="1" y="3" as="offset"/></mxGeometry></mxCell><mxCell id="04CNbRLkM5EJVx110FWp-44" value="courses" style="swimlane;fontStyle=0;childLayout=stackLayout;horizontal=1;startSize=26;horizontalStack=0;resizeParent=1;resizeParentMax=0;resizeLast=0;collapsible=1;marginBottom=0;align=center;fontSize=14;" parent="1" vertex="1"><mxGeometry x="390" y="792" width="160" height="116" as="geometry"><mxRectangle x="334" y="128" width="90" height="30" as="alternateBounds"/></mxGeometry></mxCell><mxCell id="5qRxrPsNrbithYH7x9MK-35" value="start_at" style="text;strokeColor=none;fillColor=default;spacingLeft=4;spacingRight=4;overflow=hidden;rotatable=0;points=[[0,0.5],[1,0.5]];portConstraint=eastwest;fontSize=12;whiteSpace=wrap;html=1;" parent="04CNbRLkM5EJVx110FWp-44" vertex="1"><mxGeometry y="26" width="160" height="30" as="geometry"/></mxCell><mxCell id="5qRxrPsNrbithYH7x9MK-36" value="end_at" style="text;strokeColor=none;fillColor=default;spacingLeft=4;spacingRight=4;overflow=hidden;rotatable=0;points=[[0,0.5],[1,0.5]];portConstraint=eastwest;fontSize=12;whiteSpace=wrap;html=1;" parent="04CNbRLkM5EJVx110FWp-44" vertex="1"><mxGeometry y="56" width="160" height="30" as="geometry"/></mxCell><mxCell id="5qRxrPsNrbithYH7x9MK-37" value="week_day" style="text;strokeColor=none;fillColor=default;spacingLeft=4;spacingRight=4;overflow=hidden;rotatable=0;points=[[0,0.5],[1,0.5]];portConstraint=eastwest;fontSize=12;whiteSpace=wrap;html=1;" parent="04CNbRLkM5EJVx110FWp-44" vertex="1"><mxGeometry y="86" width="160" height="30" as="geometry"/></mxCell><mxCell id="5qRxrPsNrbithYH7x9MK-54" style="edgeStyle=orthogonalEdgeStyle;rounded=0;orthogonalLoop=1;jettySize=auto;html=1;endArrow=none;endFill=0;" parent="1" source="04CNbRLkM5EJVx110FWp-53" target="04CNbRLkM5EJVx110FWp-37" edge="1"><mxGeometry relative="1" as="geometry"><Array as="points"><mxPoint x="750" y="506"/><mxPoint x="470" y="506"/></Array></mxGeometry></mxCell><mxCell id="5qRxrPsNrbithYH7x9MK-68" value="0,1" style="edgeLabel;html=1;align=center;verticalAlign=middle;resizable=0;points=[];" parent="5qRxrPsNrbithYH7x9MK-54" vertex="1" connectable="0"><mxGeometry x="0.0286" y="-1" relative="1" as="geometry"><mxPoint as="offset"/></mxGeometry></mxCell><mxCell id="oQ8XawYt_i0SIQOXS1K6-2" style="edgeStyle=orthogonalEdgeStyle;rounded=0;orthogonalLoop=1;jettySize=auto;html=1;" parent="1" source="04CNbRLkM5EJVx110FWp-53" target="04CNbRLkM5EJVx110FWp-2" edge="1"><mxGeometry relative="1" as="geometry"/></mxCell><mxCell id="oQ8XawYt_i0SIQOXS1K6-5" value="0,n" style="edgeLabel;html=1;align=center;verticalAlign=middle;resizable=0;points=[];" parent="oQ8XawYt_i0SIQOXS1K6-2" vertex="1" connectable="0"><mxGeometry x="-0.461" relative="1" as="geometry"><mxPoint as="offset"/></mxGeometry></mxCell><mxCell id="04CNbRLkM5EJVx110FWp-53" value="to masterize" style="rounded=1;whiteSpace=wrap;html=1;" parent="1" vertex="1"><mxGeometry x="690" y="460" width="120" height="30" as="geometry"/></mxCell><mxCell id="5qRxrPsNrbithYH7x9MK-52" style="edgeStyle=orthogonalEdgeStyle;rounded=0;orthogonalLoop=1;jettySize=auto;html=1;endArrow=none;endFill=0;" parent="1" source="5qRxrPsNrbithYH7x9MK-1" target="04CNbRLkM5EJVx110FWp-37" edge="1"><mxGeometry relative="1" as="geometry"><Array as="points"><mxPoint x="200" y="506"/><mxPoint x="470" y="506"/></Array></mxGeometry></mxCell><mxCell id="5qRxrPsNrbithYH7x9MK-63" value="0,n" style="edgeLabel;html=1;align=center;verticalAlign=middle;resizable=0;points=[];" parent="5qRxrPsNrbithYH7x9MK-52" vertex="1" connectable="0"><mxGeometry x="0.028" y="-1" relative="1" as="geometry"><mxPoint as="offset"/></mxGeometry></mxCell><mxCell id="5qRxrPsNrbithYH7x9MK-49" style="edgeStyle=orthogonalEdgeStyle;rounded=0;orthogonalLoop=1;jettySize=auto;html=1;endArrow=none;endFill=0;" parent="1" edge="1"><mxGeometry relative="1" as="geometry"><mxPoint x="710" y="473" as="sourcePoint"/></mxGeometry></mxCell><mxCell id="5qRxrPsNrbithYH7x9MK-77" value="0,n" style="edgeLabel;html=1;align=center;verticalAlign=middle;resizable=0;points=[];" parent="5qRxrPsNrbithYH7x9MK-49" vertex="1" connectable="0"><mxGeometry x="0.5507" y="-1" relative="1" as="geometry"><mxPoint as="offset"/></mxGeometry></mxCell><mxCell id="5qRxrPsNrbithYH7x9MK-18" value="rooms" style="swimlane;fontStyle=0;childLayout=stackLayout;horizontal=1;startSize=26;horizontalStack=0;resizeParent=1;resizeParentMax=0;resizeLast=0;collapsible=1;marginBottom=0;align=center;fontSize=14;" parent="1" vertex="1"><mxGeometry x="390" y="726" width="160" height="56" as="geometry"><mxRectangle x="334" y="128" width="90" height="30" as="alternateBounds"/></mxGeometry></mxCell><mxCell id="5qRxrPsNrbithYH7x9MK-19" value="name" style="text;strokeColor=none;fillColor=default;spacingLeft=4;spacingRight=4;overflow=hidden;rotatable=0;points=[[0,0.5],[1,0.5]];portConstraint=eastwest;fontSize=12;whiteSpace=wrap;html=1;" parent="5qRxrPsNrbithYH7x9MK-18" vertex="1"><mxGeometry y="26" width="160" height="30" as="geometry"/></mxCell><mxCell id="5qRxrPsNrbithYH7x9MK-22" style="edgeStyle=orthogonalEdgeStyle;rounded=0;orthogonalLoop=1;jettySize=auto;html=1;endArrow=none;endFill=0;" parent="1" source="5qRxrPsNrbithYH7x9MK-20" target="5qRxrPsNrbithYH7x9MK-18" edge="1"><mxGeometry relative="1" as="geometry"/></mxCell><mxCell id="5qRxrPsNrbithYH7x9MK-74" value="0,n" style="edgeLabel;html=1;align=center;verticalAlign=middle;resizable=0;points=[];" parent="5qRxrPsNrbithYH7x9MK-22" vertex="1" connectable="0"><mxGeometry x="0.3911" y="-1" relative="1" as="geometry"><mxPoint as="offset"/></mxGeometry></mxCell><mxCell id="5qRxrPsNrbithYH7x9MK-20" value="to have" style="rounded=1;whiteSpace=wrap;html=1;" parent="1" vertex="1"><mxGeometry x="410" y="666" width="120" height="30" as="geometry"/></mxCell><mxCell id="5qRxrPsNrbithYH7x9MK-24" value="to follow" style="rounded=1;whiteSpace=wrap;html=1;" parent="1" vertex="1"><mxGeometry x="630" y="526" width="120" height="30" as="geometry"/></mxCell><mxCell id="5qRxrPsNrbithYH7x9MK-31" value="to thematize" style="rounded=1;whiteSpace=wrap;html=1;" parent="1" vertex="1"><mxGeometry x="580" y="938" width="120" height="30" as="geometry"/></mxCell><mxCell id="5qRxrPsNrbithYH7x9MK-97" style="edgeStyle=orthogonalEdgeStyle;rounded=0;orthogonalLoop=1;jettySize=auto;html=1;endArrow=none;endFill=0;" parent="1" source="5qRxrPsNrbithYH7x9MK-78" target="5qRxrPsNrbithYH7x9MK-96" edge="1"><mxGeometry relative="1" as="geometry"/></mxCell><mxCell id="5qRxrPsNrbithYH7x9MK-99" value="0,n" style="edgeLabel;html=1;align=center;verticalAlign=middle;resizable=0;points=[];" parent="5qRxrPsNrbithYH7x9MK-97" vertex="1" connectable="0"><mxGeometry x="-0.1209" y="1" relative="1" as="geometry"><mxPoint as="offset"/></mxGeometry></mxCell><mxCell id="5qRxrPsNrbithYH7x9MK-78" value="examinations" style="swimlane;fontStyle=0;childLayout=stackLayout;horizontal=1;startSize=26;horizontalStack=0;resizeParent=1;resizeParentMax=0;resizeLast=0;collapsible=1;marginBottom=0;align=center;fontSize=14;" parent="1" vertex="1"><mxGeometry x="30" y="900" width="160" height="86" as="geometry"><mxRectangle x="334" y="128" width="90" height="30" as="alternateBounds"/></mxGeometry></mxCell><mxCell id="5qRxrPsNrbithYH7x9MK-79" value="title" style="text;strokeColor=none;fillColor=default;spacingLeft=4;spacingRight=4;overflow=hidden;rotatable=0;points=[[0,0.5],[1,0.5]];portConstraint=eastwest;fontSize=12;whiteSpace=wrap;html=1;" parent="5qRxrPsNrbithYH7x9MK-78" vertex="1"><mxGeometry y="26" width="160" height="30" as="geometry"/></mxCell><mxCell id="5qRxrPsNrbithYH7x9MK-80" value="expected_date" style="text;strokeColor=none;fillColor=default;spacingLeft=4;spacingRight=4;overflow=hidden;rotatable=0;points=[[0,0.5],[1,0.5]];portConstraint=eastwest;fontSize=12;whiteSpace=wrap;html=1;" parent="5qRxrPsNrbithYH7x9MK-78" vertex="1"><mxGeometry y="56" width="160" height="30" as="geometry"/></mxCell><mxCell id="5qRxrPsNrbithYH7x9MK-86" style="edgeStyle=orthogonalEdgeStyle;rounded=0;orthogonalLoop=1;jettySize=auto;html=1;endArrow=none;endFill=0;" parent="1" source="5qRxrPsNrbithYH7x9MK-84" target="5qRxrPsNrbithYH7x9MK-78" edge="1"><mxGeometry relative="1" as="geometry"><Array as="points"><mxPoint x="290" y="970"/><mxPoint x="290" y="970"/></Array></mxGeometry></mxCell><mxCell id="5qRxrPsNrbithYH7x9MK-88" value="1,1" style="edgeLabel;html=1;align=center;verticalAlign=middle;resizable=0;points=[];" parent="5qRxrPsNrbithYH7x9MK-86" vertex="1" connectable="0"><mxGeometry x="0.1346" y="-1" relative="1" as="geometry"><mxPoint x="8" y="-1" as="offset"/></mxGeometry></mxCell><mxCell id="5qRxrPsNrbithYH7x9MK-84" value="to test" style="rounded=1;whiteSpace=wrap;html=1;" parent="1" vertex="1"><mxGeometry x="410" y="960" width="120" height="30" as="geometry"/></mxCell><mxCell id="5qRxrPsNrbithYH7x9MK-89" value="grades" style="swimlane;fontStyle=0;childLayout=stackLayout;horizontal=1;startSize=26;horizontalStack=0;resizeParent=1;resizeParentMax=0;resizeLast=0;collapsible=1;marginBottom=0;align=center;fontSize=14;" parent="1" vertex="1"><mxGeometry x="30" y="641" width="160" height="86" as="geometry"><mxRectangle x="334" y="128" width="90" height="30" as="alternateBounds"/></mxGeometry></mxCell><mxCell id="5qRxrPsNrbithYH7x9MK-90" value="value" style="text;strokeColor=none;fillColor=default;spacingLeft=4;spacingRight=4;overflow=hidden;rotatable=0;points=[[0,0.5],[1,0.5]];portConstraint=eastwest;fontSize=12;whiteSpace=wrap;html=1;" parent="5qRxrPsNrbithYH7x9MK-89" vertex="1"><mxGeometry y="26" width="160" height="30" as="geometry"/></mxCell><mxCell id="5qRxrPsNrbithYH7x9MK-91" value="expected_date" style="text;strokeColor=none;fillColor=default;spacingLeft=4;spacingRight=4;overflow=hidden;rotatable=0;points=[[0,0.5],[1,0.5]];portConstraint=eastwest;fontSize=12;whiteSpace=wrap;html=1;" parent="5qRxrPsNrbithYH7x9MK-89" vertex="1"><mxGeometry y="56" width="160" height="30" as="geometry"/></mxCell><mxCell id="5qRxrPsNrbithYH7x9MK-98" style="edgeStyle=orthogonalEdgeStyle;rounded=0;orthogonalLoop=1;jettySize=auto;html=1;endArrow=none;endFill=0;" parent="1" source="5qRxrPsNrbithYH7x9MK-96" target="5qRxrPsNrbithYH7x9MK-89" edge="1"><mxGeometry relative="1" as="geometry"/></mxCell><mxCell id="5qRxrPsNrbithYH7x9MK-100" value="1,1" style="edgeLabel;html=1;align=center;verticalAlign=middle;resizable=0;points=[];" parent="5qRxrPsNrbithYH7x9MK-98" vertex="1" connectable="0"><mxGeometry x="0.324" y="-2" relative="1" as="geometry"><mxPoint x="-2" y="15" as="offset"/></mxGeometry></mxCell><mxCell id="5qRxrPsNrbithYH7x9MK-96" value="to test" style="rounded=1;whiteSpace=wrap;html=1;" parent="1" vertex="1"><mxGeometry x="50" y="800" width="120" height="30" as="geometry"/></mxCell><mxCell id="5qRxrPsNrbithYH7x9MK-103" style="edgeStyle=orthogonalEdgeStyle;rounded=0;orthogonalLoop=1;jettySize=auto;html=1;endArrow=none;endFill=0;" parent="1" source="5qRxrPsNrbithYH7x9MK-102" target="5qRxrPsNrbithYH7x9MK-89" edge="1"><mxGeometry relative="1" as="geometry"/></mxCell><mxCell id="5qRxrPsNrbithYH7x9MK-106" value="1,1" style="edgeLabel;html=1;align=center;verticalAlign=middle;resizable=0;points=[];" parent="5qRxrPsNrbithYH7x9MK-103" vertex="1" connectable="0"><mxGeometry x="-0.0747" relative="1" as="geometry"><mxPoint as="offset"/></mxGeometry></mxCell><mxCell id="5qRxrPsNrbithYH7x9MK-102" value="to have" style="rounded=1;whiteSpace=wrap;html=1;" parent="1" vertex="1"><mxGeometry x="50" y="544" width="120" height="30" as="geometry"/></mxCell><mxCell id="oQ8XawYt_i0SIQOXS1K6-3" style="edgeStyle=orthogonalEdgeStyle;rounded=0;orthogonalLoop=1;jettySize=auto;html=1;" parent="1" source="5qRxrPsNrbithYH7x9MK-1" target="04CNbRLkM5EJVx110FWp-2" edge="1"><mxGeometry relative="1" as="geometry"/></mxCell><mxCell id="oQ8XawYt_i0SIQOXS1K6-4" value="0,n" style="edgeLabel;html=1;align=center;verticalAlign=middle;resizable=0;points=[];" parent="oQ8XawYt_i0SIQOXS1K6-3" vertex="1" connectable="0"><mxGeometry x="-0.5303" y="1" relative="1" as="geometry"><mxPoint as="offset"/></mxGeometry></mxCell><mxCell id="5qRxrPsNrbithYH7x9MK-1" value="to follow" style="rounded=1;whiteSpace=wrap;html=1;" parent="1" vertex="1"><mxGeometry x="140" y="460" width="120" height="30" as="geometry"/></mxCell><mxCell id="5qRxrPsNrbithYH7x9MK-208" value="promotions_asserts" style="swimlane;fontStyle=0;childLayout=stackLayout;horizontal=1;startSize=26;horizontalStack=0;resizeParent=1;resizeParentMax=0;resizeLast=0;collapsible=1;marginBottom=0;align=center;fontSize=14;" parent="1" vertex="1"><mxGeometry x="580" y="170" width="160" height="116" as="geometry"><mxRectangle x="334" y="128" width="90" height="30" as="alternateBounds"/></mxGeometry></mxCell><mxCell id="5qRxrPsNrbithYH7x9MK-209" value="year" style="text;strokeColor=none;fillColor=default;spacingLeft=4;spacingRight=4;overflow=hidden;rotatable=0;points=[[0,0.5],[1,0.5]];portConstraint=eastwest;fontSize=12;whiteSpace=wrap;html=1;" parent="5qRxrPsNrbithYH7x9MK-208" vertex="1"><mxGeometry y="26" width="160" height="30" as="geometry"/></mxCell><mxCell id="5qRxrPsNrbithYH7x9MK-210" value="semester" style="text;strokeColor=none;fillColor=default;spacingLeft=4;spacingRight=4;overflow=hidden;rotatable=0;points=[[0,0.5],[1,0.5]];portConstraint=eastwest;fontSize=12;whiteSpace=wrap;html=1;" parent="5qRxrPsNrbithYH7x9MK-208" vertex="1"><mxGeometry y="56" width="160" height="30" as="geometry"/></mxCell><mxCell id="5qRxrPsNrbithYH7x9MK-211" value="function" style="text;strokeColor=none;fillColor=default;spacingLeft=4;spacingRight=4;overflow=hidden;rotatable=0;points=[[0,0.5],[1,0.5]];portConstraint=eastwest;fontSize=12;whiteSpace=wrap;html=1;" parent="5qRxrPsNrbithYH7x9MK-208" vertex="1"><mxGeometry y="86" width="160" height="30" as="geometry"/></mxCell><mxCell id="oQ8XawYt_i0SIQOXS1K6-17" style="edgeStyle=orthogonalEdgeStyle;rounded=0;orthogonalLoop=1;jettySize=auto;html=1;endArrow=none;endFill=0;" parent="1" source="oQ8XawYt_i0SIQOXS1K6-10" target="oQ8XawYt_i0SIQOXS1K6-16" edge="1"><mxGeometry relative="1" as="geometry"><Array as="points"><mxPoint x="770" y="670"/></Array></mxGeometry></mxCell><mxCell id="oQ8XawYt_i0SIQOXS1K6-24" value="0,n" style="edgeLabel;html=1;align=center;verticalAlign=middle;resizable=0;points=[];" parent="oQ8XawYt_i0SIQOXS1K6-17" vertex="1" connectable="0"><mxGeometry x="0.2432" y="2" relative="1" as="geometry"><mxPoint as="offset"/></mxGeometry></mxCell><mxCell id="oQ8XawYt_i0SIQOXS1K6-21" style="edgeStyle=orthogonalEdgeStyle;rounded=0;orthogonalLoop=1;jettySize=auto;html=1;endArrow=none;endFill=0;" parent="1" source="oQ8XawYt_i0SIQOXS1K6-10" target="oQ8XawYt_i0SIQOXS1K6-20" edge="1"><mxGeometry relative="1" as="geometry"><Array as="points"><mxPoint x="800" y="626"/><mxPoint x="800" y="626"/></Array></mxGeometry></mxCell><mxCell id="oQ8XawYt_i0SIQOXS1K6-23" value="0,n" style="edgeLabel;html=1;align=center;verticalAlign=middle;resizable=0;points=[];" parent="oQ8XawYt_i0SIQOXS1K6-21" vertex="1" connectable="0"><mxGeometry x="-0.0767" y="-1" relative="1" as="geometry"><mxPoint as="offset"/></mxGeometry></mxCell><mxCell id="oQ8XawYt_i0SIQOXS1K6-10" value="moment" style="swimlane;fontStyle=0;childLayout=stackLayout;horizontal=1;startSize=26;horizontalStack=0;resizeParent=1;resizeParentMax=0;resizeLast=0;collapsible=1;marginBottom=0;align=center;fontSize=14;" parent="1" vertex="1"><mxGeometry x="830" y="574" width="160" height="146" as="geometry"><mxRectangle x="334" y="128" width="90" height="30" as="alternateBounds"/></mxGeometry></mxCell><mxCell id="oQ8XawYt_i0SIQOXS1K6-27" value="uid" style="text;strokeColor=none;fillColor=default;spacingLeft=4;spacingRight=4;overflow=hidden;rotatable=0;points=[[0,0.5],[1,0.5]];portConstraint=eastwest;fontSize=12;whiteSpace=wrap;html=1;" parent="oQ8XawYt_i0SIQOXS1K6-10" vertex="1"><mxGeometry y="26" width="160" height="30" as="geometry"/></mxCell><mxCell id="oQ8XawYt_i0SIQOXS1K6-11" value="type" style="text;strokeColor=none;fillColor=default;spacingLeft=4;spacingRight=4;overflow=hidden;rotatable=0;points=[[0,0.5],[1,0.5]];portConstraint=eastwest;fontSize=12;whiteSpace=wrap;html=1;" parent="oQ8XawYt_i0SIQOXS1K6-10" vertex="1"><mxGeometry y="56" width="160" height="30" as="geometry"/></mxCell><mxCell id="oQ8XawYt_i0SIQOXS1K6-12" value="start_on" style="text;strokeColor=none;fillColor=default;spacingLeft=4;spacingRight=4;overflow=hidden;rotatable=0;points=[[0,0.5],[1,0.5]];portConstraint=eastwest;fontSize=12;whiteSpace=wrap;html=1;" parent="oQ8XawYt_i0SIQOXS1K6-10" vertex="1"><mxGeometry y="86" width="160" height="30" as="geometry"/></mxCell><mxCell id="oQ8XawYt_i0SIQOXS1K6-13" value="end_on" style="text;strokeColor=none;fillColor=default;spacingLeft=4;spacingRight=4;overflow=hidden;rotatable=0;points=[[0,0.5],[1,0.5]];portConstraint=eastwest;fontSize=12;whiteSpace=wrap;html=1;" parent="oQ8XawYt_i0SIQOXS1K6-10" vertex="1"><mxGeometry y="116" width="160" height="30" as="geometry"/></mxCell><mxCell id="oQ8XawYt_i0SIQOXS1K6-18" style="edgeStyle=orthogonalEdgeStyle;rounded=0;orthogonalLoop=1;jettySize=auto;html=1;endArrow=none;endFill=0;" parent="1" source="oQ8XawYt_i0SIQOXS1K6-16" target="04CNbRLkM5EJVx110FWp-44" edge="1"><mxGeometry relative="1" as="geometry"/></mxCell><mxCell id="oQ8XawYt_i0SIQOXS1K6-25" value="1,1" style="edgeLabel;html=1;align=center;verticalAlign=middle;resizable=0;points=[];" parent="oQ8XawYt_i0SIQOXS1K6-18" vertex="1" connectable="0"><mxGeometry x="-0.0633" y="-2" relative="1" as="geometry"><mxPoint as="offset"/></mxGeometry></mxCell><mxCell id="oQ8XawYt_i0SIQOXS1K6-16" value="to last" style="rounded=1;whiteSpace=wrap;html=1;" parent="1" vertex="1"><mxGeometry x="650" y="835" width="120" height="30" as="geometry"/></mxCell><mxCell id="oQ8XawYt_i0SIQOXS1K6-22" style="edgeStyle=orthogonalEdgeStyle;rounded=0;orthogonalLoop=1;jettySize=auto;html=1;endArrow=none;endFill=0;" parent="1" source="oQ8XawYt_i0SIQOXS1K6-20" target="04CNbRLkM5EJVx110FWp-37" edge="1"><mxGeometry relative="1" as="geometry"><Array as="points"><mxPoint x="730" y="590"/></Array></mxGeometry></mxCell><mxCell id="oQ8XawYt_i0SIQOXS1K6-26" value="1,1" style="edgeLabel;html=1;align=center;verticalAlign=middle;resizable=0;points=[];" parent="oQ8XawYt_i0SIQOXS1K6-22" vertex="1" connectable="0"><mxGeometry x="-0.0936" y="-1" relative="1" as="geometry"><mxPoint x="-60" as="offset"/></mxGeometry></mxCell><mxCell id="oQ8XawYt_i0SIQOXS1K6-20" value="to last" style="rounded=1;whiteSpace=wrap;html=1;" parent="1" vertex="1"><mxGeometry x="670" y="611" width="120" height="30" as="geometry"/></mxCell></root></mxGraphModel></diagram></mxfile>